<svg width="860" height="140" viewBox="0 0 860 140" xmlns="http://www.w3.org/2000/svg">
  <rect width="860" height="140" fill="#0A0A0A"/>
  <rect x="0" y="139" width="860" height="1" fill="#21262d"/>

  <!-- Section label -->
  <text x="40" y="36" font-family="'Courier New', monospace" font-size="9" fill="#444d56" letter-spacing="3">// HOW WE WORK</text>

  <!-- Flow steps -->
  <!-- Step 1 -->
  <rect x="40" y="52" width="110" height="32" fill="#161b22" stroke="#30363d" stroke-width="0.5"/>
  <text x="95" y="72" text-anchor="middle" font-family="'Courier New', monospace" font-size="10" fill="#e6edf3" letter-spacing="1">STRATEGY</text>

  <!-- Arrow -->
  <line x1="150" y1="68" x2="172" y2="68" stroke="#E8FF47" stroke-width="1" opacity="0.6"/>
  <polygon points="172,64 180,68 172,72" fill="#E8FF47" opacity="0.6"/>

  <!-- Step 2 -->
  <rect x="180" y="52" width="90" height="32" fill="#161b22" stroke="#30363d" stroke-width="0.5"/>
  <text x="225" y="72" text-anchor="middle" font-family="'Courier New', monospace" font-size="10" fill="#e6edf3" letter-spacing="1">DESIGN</text>

  <!-- Arrow -->
  <line x1="270" y1="68" x2="292" y2="68" stroke="#E8FF47" stroke-width="1" opacity="0.6"/>
  <polygon points="292,64 300,68 292,72" fill="#E8FF47" opacity="0.6"/>

  <!-- Step 3 -->
  <rect x="300" y="52" width="80" height="32" fill="#E8FF47"/>
  <text x="340" y="72" text-anchor="middle" font-family="'Courier New', monospace" font-size="10" fill="#0A0A0A" font-weight="700" letter-spacing="1">BUILD</text>

  <!-- Arrow -->
  <line x1="380" y1="68" x2="402" y2="68" stroke="#E8FF47" stroke-width="1" opacity="0.6"/>
  <polygon points="402,64 410,68 402,72" fill="#E8FF47" opacity="0.6"/>

  <!-- Step 4 -->
  <rect x="410" y="52" width="70" height="32" fill="#161b22" stroke="#30363d" stroke-width="0.5"/>
  <text x="445" y="72" text-anchor="middle" font-family="'Courier New', monospace" font-size="10" fill="#e6edf3" letter-spacing="1">SHIP</text>

  <!-- Arrow -->
  <line x1="480" y1="68" x2="502" y2="68" stroke="#E8FF47" stroke-width="1" opacity="0.6"/>
  <polygon points="502,64 510,68 502,72" fill="#E8FF47" opacity="0.6"/>

  <!-- Step 5 -->
  <rect x="510" y="52" width="90" height="32" fill="#161b22" stroke="#30363d" stroke-width="0.5"/>
  <text x="555" y="72" text-anchor="middle" font-family="'Courier New', monospace" font-size="10" fill="#e6edf3" letter-spacing="1">ITERATE</text>

  <!-- Notes -->
  <text x="40" y="114" font-family="'Courier New', monospace" font-size="11" fill="#8b949e">First draft in </text>
<text x="148" y="114" font-family="'Courier New', monospace" font-size="11" fill="#E8FF47" font-weight="700">48h</text>
<text x="186" y="114" font-family="'Courier New', monospace" font-size="11" fill="#8b949e">  .  Built for B2B platforms and B2C products</text>
</svg>
